<svg width="41" height="34" viewBox="0 0 41 34" fill="none" xmlns="http://www.w3.org/2000/svg">
    <path d="M40.5969 4.64008C40.7177 4.47181 40.5393 4.25454 40.3462 4.32939C38.9739 4.86133 37.5396 5.22022 36.0766 5.39708C37.7056 4.42391 38.9626 2.9425 39.6597 1.18861C39.7307 1.00995 39.5356 0.85039 39.3673 0.943336C37.8533 1.77946 36.2205 2.38153 34.5243 2.72828C34.4533 2.74279 34.3801 2.71862 34.3303 2.66602C33.0574 1.32295 31.382 0.42871 29.5554 0.119691C27.6905 -0.195819 25.7736 0.116581 24.1054 1.0079C22.4371 1.89921 21.1119 3.31902 20.3376 5.04466C19.6013 6.68541 19.4026 8.51439 19.7658 10.2709C19.7939 10.4072 19.6873 10.5359 19.5483 10.5272C16.2482 10.3223 13.0239 9.4445 10.0738 7.9468C7.13131 6.4529 4.52562 4.37464 2.41547 1.8402C2.32182 1.72772 2.14433 1.74228 2.07609 1.87176C1.41949 3.11774 1.0757 4.50647 1.07664 5.91792C1.07397 7.32288 1.41876 8.7067 2.08029 9.94618C2.74183 11.1857 3.69959 12.2423 4.8683 13.0221C3.62888 12.9884 2.41361 12.682 1.3084 12.1264C1.16597 12.0548 0.995124 12.1567 1.00253 12.316C1.08872 14.1686 1.76883 16.0284 2.94604 17.4553C4.19879 18.9738 5.93759 20.013 7.8683 20.3971C7.12509 20.6233 6.35346 20.7425 5.57664 20.7513C5.15384 20.7463 4.73188 20.7151 4.31317 20.6579C4.15792 20.6366 4.03115 20.7841 4.0855 20.9311C4.66137 22.4883 5.67871 23.8472 7.01638 24.8391C8.44648 25.8995 10.1716 26.4878 11.9516 26.5221C8.94581 28.8872 5.23473 30.178 1.40997 30.1888C1.01696 30.19 0.624131 30.1773 0.232223 30.1506C0.0113732 30.1355 -0.0901994 30.4298 0.100166 30.5428C3.82677 32.7543 8.08619 33.9232 12.4308 33.9179C15.6385 33.9512 18.8207 33.345 21.7915 32.1348C24.7623 30.9245 27.4621 29.1343 29.7333 26.869C32.0045 24.6036 33.8016 21.9083 35.0195 18.9406C36.2374 15.973 36.8517 12.7923 36.8266 9.58458V8.58494C36.8266 8.51917 36.8578 8.45731 36.9102 8.41768C38.3233 7.35072 39.566 6.07689 40.5969 4.64008Z" fill="white" />
</svg>
    